%TF.GenerationSoftware,KiCad,Pcbnew,7.0.9*%
%TF.CreationDate,2024-05-28T15:48:04+02:00*%
%TF.ProjectId,ESP_DB_v1.0,4553505f-4442-45f7-9631-2e302e6b6963,rev?*%
%TF.SameCoordinates,Original*%
%TF.FileFunction,Legend,Bot*%
%TF.FilePolarity,Positive*%
%FSLAX46Y46*%
G04 Gerber Fmt 4.6, Leading zero omitted, Abs format (unit mm)*
G04 Created by KiCad (PCBNEW 7.0.9) date 2024-05-28 15:48:04*
%MOMM*%
%LPD*%
G01*
G04 APERTURE LIST*
%ADD10C,0.150000*%
%ADD11C,0.120000*%
G04 APERTURE END LIST*
D10*
X103341904Y-58054819D02*
X103341904Y-58864342D01*
X103341904Y-58864342D02*
X103294285Y-58959580D01*
X103294285Y-58959580D02*
X103246666Y-59007200D01*
X103246666Y-59007200D02*
X103151428Y-59054819D01*
X103151428Y-59054819D02*
X102960952Y-59054819D01*
X102960952Y-59054819D02*
X102865714Y-59007200D01*
X102865714Y-59007200D02*
X102818095Y-58959580D01*
X102818095Y-58959580D02*
X102770476Y-58864342D01*
X102770476Y-58864342D02*
X102770476Y-58054819D01*
X102389523Y-58054819D02*
X101770476Y-58054819D01*
X101770476Y-58054819D02*
X102103809Y-58435771D01*
X102103809Y-58435771D02*
X101960952Y-58435771D01*
X101960952Y-58435771D02*
X101865714Y-58483390D01*
X101865714Y-58483390D02*
X101818095Y-58531009D01*
X101818095Y-58531009D02*
X101770476Y-58626247D01*
X101770476Y-58626247D02*
X101770476Y-58864342D01*
X101770476Y-58864342D02*
X101818095Y-58959580D01*
X101818095Y-58959580D02*
X101865714Y-59007200D01*
X101865714Y-59007200D02*
X101960952Y-59054819D01*
X101960952Y-59054819D02*
X102246666Y-59054819D01*
X102246666Y-59054819D02*
X102341904Y-59007200D01*
X102341904Y-59007200D02*
X102389523Y-58959580D01*
D11*
%TO.C,U3*%
X104120000Y-78820000D02*
X103120000Y-78820000D01*
X104120000Y-78200000D02*
X104120000Y-78820000D01*
X104120000Y-59800000D02*
X104500000Y-59800000D01*
X104120000Y-59380000D02*
X104120000Y-59800000D01*
X104120000Y-59380000D02*
X85880000Y-59380000D01*
X85880000Y-78820000D02*
X86880000Y-78820000D01*
X85880000Y-78200000D02*
X85880000Y-78820000D01*
X85880000Y-59380000D02*
X85880000Y-59800000D01*
%TD*%
M02*
