M48
; DRILL file {KiCad 7.0.9} date Tue May 28 15:48:09 2024
; FORMAT={-:-/ absolute / inch / decimal}
; #@! TF.CreationDate,2024-05-28T15:48:09+02:00
; #@! TF.GenerationSoftware,Kicad,Pcbnew,7.0.9
; #@! TF.FileFunction,Plated,1,2,PTH
FMAT,2
INCH
; #@! TA.AperFunction,Plated,PTH,ViaDrill
T1C0.0079
; #@! TA.AperFunction,Plated,PTH,ComponentDrill
T2C0.0079
; #@! TA.AperFunction,Plated,PTH,ViaDrill
T3C0.0118
; #@! TA.AperFunction,Plated,PTH,ViaDrill
T4C0.0157
; #@! TA.AperFunction,Plated,PTH,ComponentDrill
T5C0.0197
; #@! TA.AperFunction,Plated,PTH,ComponentDrill
T6C0.0236
; #@! TA.AperFunction,Plated,PTH,ComponentDrill
T7C0.0315
; #@! TA.AperFunction,Plated,PTH,ViaDrill
T8C0.0354
; #@! TA.AperFunction,Plated,PTH,ComponentDrill
T9C0.0354
; #@! TA.AperFunction,Plated,PTH,ComponentDrill
T10C0.0394
; #@! TA.AperFunction,Plated,PTH,ComponentDrill
T11C0.0472
; #@! TA.AperFunction,Plated,PTH,ComponentDrill
T12C0.1260
%
G90
G05
T1
X3.6535Y-4.8583
X3.685Y-4.7992
X3.937Y-4.7992
X3.9675Y-3.6981
X3.9803Y-3.7205
T2
X3.7441Y-2.6657
X3.7441Y-2.7209
X3.7717Y-2.6382
X3.7717Y-2.6933
X3.7717Y-2.7484
X3.7992Y-2.6657
X3.7992Y-2.7209
X3.8268Y-2.6382
X3.8268Y-2.6933
X3.8268Y-2.7484
X3.8543Y-2.6657
X3.8543Y-2.7209
T3
X2.1732Y-3.4921
X2.189Y-3.9449
X2.2323Y-4.0906
X2.2795Y-3.3937
X2.2953Y-3.626
X2.2953Y-3.9409
X2.3346Y-3.4764
X2.3425Y-4.0236
X2.3861Y-3.2711
X2.4134Y-3.3622
X2.4957Y-3.0831
X2.5Y-3.3386
X2.5977Y-3.0559
X2.638Y-3.1652
X2.6457Y-2.8346
X2.6693Y-4.0984
X2.7008Y-2.5827
X2.7087Y-4.8307
X2.7441Y-4.9803
X2.7598Y-2.7402
X2.7599Y-2.5355
X2.8071Y-4.8307
X2.8504Y-3.2165
X2.8504Y-4.1575
X2.8583Y-4.0748
X2.8622Y-2.5669
X2.9173Y-4.9331
X2.9252Y-4.185
X2.9331Y-3.1693
X2.937Y-4.0315
X2.9449Y-3.3268
X3.0039Y-4.1417
X3.0118Y-3.2126
X3.035Y-4.8154
X3.1201Y-5.1752
X3.1457Y-4.563
X3.1693Y-4.8425
X3.1693Y-5.0906
X3.1752Y-2.2579
X3.2165Y-3.2904
X3.2254Y-3.1427
X3.2657Y-2.3878
X3.2657Y-5.2224
X3.2795Y-4.5315
X3.313Y-5.1319
X3.3189Y-4.7598
X3.3386Y-2.4961
X3.3386Y-3.5866
X3.3386Y-3.6693
X3.3425Y-2.6457
X3.3622Y-4.7323
X3.4055Y-4.2283
X3.4094Y-3.9567
X3.4252Y-3.1063
X3.4331Y-5.1181
X3.4528Y-3.0469
X3.4803Y-2.8937
X3.4882Y-5.0866
X3.5276Y-2.4961
X3.5276Y-2.6457
X3.5289Y-3.501
X3.5315Y-4.8819
X3.5787Y-3.7638
X3.5836Y-3.6467
X3.5906Y-2.9331
X3.6024Y-3.4449
X3.6063Y-4.1939
X3.6378Y-4.7559
X3.6535Y-2.9331
X3.6693Y-3.6575
X3.6693Y-3.6929
X3.6693Y-3.7323
X3.6693Y-3.7697
X3.6693Y-3.8071
X3.6732Y-3.5512
X3.6772Y-3.4449
X3.6811Y-5.1181
X3.6929Y-3.8307
X3.7032Y-3.5417
X3.7087Y-3.6457
X3.7126Y-3.7047
X3.7126Y-3.7874
X3.7165Y-2.5236
X3.7165Y-2.9331
X3.7314Y-5.0366
X3.7323Y-3.8307
X3.752Y-3.6457
X3.7524Y-3.5433
X3.7598Y-3.7402
X3.7717Y-3.8307
X3.7795Y-2.9331
X3.7812Y-3.5174
X3.7835Y-5.0315
X3.7953Y-3.6457
X3.8031Y-3.7047
X3.8031Y-3.7835
X3.8058Y-3.5433
X3.811Y-4.7953
X3.815Y-3.8307
X3.8228Y-5.0315
X3.8346Y-3.5157
X3.8386Y-3.6457
X3.8425Y-2.9331
X3.8437Y-4.9224
X3.8465Y-4.1102
X3.8465Y-4.1929
X3.8543Y-3.6811
X3.8543Y-3.7205
X3.8543Y-3.7638
X3.8543Y-3.811
X3.8543Y-4.2323
X3.874Y-5.1181
X3.8819Y-4.2618
X3.8898Y-4.3268
X3.8976Y-3.5311
X3.8976Y-3.5802
X3.9016Y-4.1693
X3.9055Y-2.9331
X3.9055Y-4.8898
X3.9203Y-3.5556
X3.9464Y-4.7141
X3.9528Y-4.0157
X3.9724Y-3.8986
X3.9764Y-3.5039
X3.9764Y-3.6102
X4.003Y-4.1319
X4.003Y-4.251
X4.0276Y-2.3819
X4.0276Y-2.4969
X4.0286Y-4.0118
X4.0295Y-2.4469
X4.0394Y-4.3268
X4.0591Y-4.5787
X4.1142Y-4.565
X4.126Y-4.6024
X4.1673Y-5.187
X4.2047Y-5.0157
X4.2175Y-4.6024
X4.2224Y-2.2579
X4.2402Y-4.1457
X4.2402Y-4.7008
X4.313Y-2.2579
X4.313Y-2.3878
X4.313Y-5.2224
X4.3268Y-3.5
X4.3425Y-3.3543
X4.3602Y-5.1319
X4.3661Y-3.189
X4.3937Y-4.0866
X4.3996Y-3.624
X4.4094Y-4.2441
X4.4173Y-3.7362
X4.4331Y-4.6299
X4.4449Y-3.1457
X4.4449Y-3.4094
X4.4724Y-4.1299
X4.5079Y-3.2598
X4.5551Y-3.6024
X4.6299Y-2.5
X4.6654Y-3.2874
X4.6706Y-2.6443
X4.7205Y-4.7165
X4.7362Y-2.5
X4.7362Y-4.8071
X4.7402Y-4.9724
X4.7677Y-2.6417
X4.7756Y-4.748
X4.7767Y-3.4775
X4.7835Y-4.8937
X5.1496Y-4.0
X5.1614Y-3.4173
X5.1929Y-3.9213
X5.2008Y-3.5669
X5.2008Y-4.0866
X5.2638Y-3.4173
X5.2992Y-3.563
X5.3071Y-3.9843
T4
X4.2185Y-5.0925
X4.626Y-4.9094
T5
X2.0354Y-3.7402
X2.0631Y-3.6733
X2.0631Y-3.807
X2.1299Y-3.6457
X2.1299Y-3.8346
X2.1967Y-3.6733
X2.1967Y-3.807
X2.2244Y-3.7402
X2.8425Y-2.3465
X2.8425Y-5.1339
X2.8702Y-2.2796
X2.8702Y-2.4133
X2.8702Y-5.067
X2.8702Y-5.2007
X2.937Y-2.252
X2.937Y-2.4409
X2.937Y-5.0394
X2.937Y-5.2283
X3.0038Y-2.2796
X3.0038Y-2.4133
X3.0038Y-5.067
X3.0038Y-5.2007
X3.0315Y-2.3465
X3.0315Y-5.1339
X4.4488Y-2.3465
X4.4488Y-5.1339
X4.4765Y-2.2796
X4.4765Y-2.4133
X4.4765Y-5.067
X4.4765Y-5.2007
X4.5433Y-2.252
X4.5433Y-2.4409
X4.5433Y-5.0394
X4.5433Y-5.2283
X4.6101Y-2.2796
X4.6101Y-2.4133
X4.6101Y-5.067
X4.6101Y-5.2007
X4.6378Y-2.3465
X4.6378Y-5.1339
X5.2559Y-3.7402
X5.2836Y-3.6733
X5.2836Y-3.807
X5.3504Y-3.6457
X5.3504Y-3.8346
X5.4172Y-3.6733
X5.4172Y-3.807
X5.4449Y-3.7402
T7
X3.8307Y-3.3701
X3.8307Y-3.4488
X3.9094Y-3.3701
X3.9094Y-3.4488
X3.9882Y-3.3701
X3.9882Y-3.4488
T8
X2.7953Y-4.2756
X2.8386Y-4.7402
X2.8701Y-4.7913
X3.1377Y-4.1418
X3.1378Y-4.2559
T9
X3.3858Y-3.3307
X4.0591Y-4.878
X4.1339Y-4.2087
X4.2835Y-4.9803
X4.7559Y-4.5591
X4.8937Y-4.6378
T10
X2.374Y-3.7323
X2.7677Y-3.7323
X3.1348Y-3.3848
X3.1348Y-3.4848
X3.1348Y-3.5848
X3.1348Y-3.6848
X3.1348Y-3.7848
X3.1348Y-3.8848
X3.1348Y-3.9848
X3.152Y-2.5362
X3.152Y-2.6362
X3.152Y-2.7362
X3.152Y-2.8362
X3.152Y-2.9362
X3.152Y-3.0362
X3.2348Y-3.3848
X3.2348Y-3.4848
X3.2348Y-3.5848
X3.2348Y-3.6848
X3.2348Y-3.7848
X3.2348Y-3.8848
X3.2348Y-3.9848
X3.252Y-2.5362
X3.252Y-2.6362
X3.252Y-2.7362
X3.252Y-2.8362
X3.252Y-2.9362
X3.252Y-3.0362
X3.2904Y-3.2087
X3.3904Y-3.2087
X3.4904Y-3.2087
X3.5904Y-3.2087
X3.6904Y-3.2087
X3.7904Y-3.2087
X3.8071Y-4.5906
X3.8898Y-4.5079
X3.8904Y-3.2087
X3.9904Y-3.2087
X4.0904Y-3.2087
X4.1205Y-3.3827
X4.1205Y-3.4827
X4.1205Y-3.5827
X4.1205Y-3.6827
X4.1205Y-3.7827
X4.1205Y-3.8827
X4.1205Y-3.9827
X4.1904Y-3.2087
X4.2205Y-3.3827
X4.2205Y-3.4827
X4.2205Y-3.5827
X4.2205Y-3.6827
X4.2205Y-3.7827
X4.2205Y-3.8827
X4.2205Y-3.9827
X4.2283Y-2.5315
X4.2283Y-2.6315
X4.2283Y-2.7315
X4.2283Y-2.8315
X4.2283Y-2.9315
X4.2283Y-3.0315
X4.3283Y-2.5315
X4.3283Y-2.6315
X4.3283Y-2.7315
X4.3283Y-2.8315
X4.3283Y-2.9315
X4.3283Y-3.0315
T11
X4.7636Y-2.8347
X4.8386Y-2.9646
X4.9609Y-3.1764
X5.0359Y-3.3063
T12
X2.1299Y-3.7402
X2.937Y-2.3465
X2.937Y-5.1339
X4.5433Y-2.3465
X4.5433Y-5.1339
X5.3504Y-3.7402
T6
G00X3.6047Y-4.9823
M15
G01X3.6047Y-5.0256
M16
G05
G00X3.6047Y-5.1535
M15
G01X3.6047Y-5.185
M16
G05
G00X3.9449Y-4.9823
M15
G01X3.9449Y-5.0256
M16
G05
G00X3.9449Y-5.1535
M15
G01X3.9449Y-5.185
M16
G05
T10
G00X2.7067Y-4.6363
M15
G01X2.7264Y-4.6704
M16
G05
G00X2.8942Y-4.528
M15
G01X2.9139Y-4.5621
M16
G05
G00X2.9366Y-4.4126
M15
G01X2.9563Y-4.4467
M16
G05
T0
M30
