%TF.GenerationSoftware,KiCad,Pcbnew,7.0.9*%
%TF.CreationDate,2024-05-28T15:48:04+02:00*%
%TF.ProjectId,ESP_DB_v1.0,4553505f-4442-45f7-9631-2e302e6b6963,rev?*%
%TF.SameCoordinates,Original*%
%TF.FileFunction,Soldermask,Bot*%
%TF.FilePolarity,Negative*%
%FSLAX46Y46*%
G04 Gerber Fmt 4.6, Leading zero omitted, Abs format (unit mm)*
G04 Created by KiCad (PCBNEW 7.0.9) date 2024-05-28 15:48:04*
%MOMM*%
%LPD*%
G01*
G04 APERTURE LIST*
G04 Aperture macros list*
%AMRoundRect*
0 Rectangle with rounded corners*
0 $1 Rounding radius*
0 $2 $3 $4 $5 $6 $7 $8 $9 X,Y pos of 4 corners*
0 Add a 4 corners polygon primitive as box body*
4,1,4,$2,$3,$4,$5,$6,$7,$8,$9,$2,$3,0*
0 Add four circle primitives for the rounded corners*
1,1,$1+$1,$2,$3*
1,1,$1+$1,$4,$5*
1,1,$1+$1,$6,$7*
1,1,$1+$1,$8,$9*
0 Add four rect primitives between the rounded corners*
20,1,$1+$1,$2,$3,$4,$5,0*
20,1,$1+$1,$4,$5,$6,$7,0*
20,1,$1+$1,$6,$7,$8,$9,0*
20,1,$1+$1,$8,$9,$2,$3,0*%
%AMHorizOval*
0 Thick line with rounded ends*
0 $1 width*
0 $2 $3 position (X,Y) of the first rounded end (center of the circle)*
0 $4 $5 position (X,Y) of the second rounded end (center of the circle)*
0 Add line between two ends*
20,1,$1,$2,$3,$4,$5,0*
0 Add two circle primitives to create the rounded ends*
1,1,$1,$2,$3*
1,1,$1,$4,$5*%
G04 Aperture macros list end*
%ADD10C,0.800000*%
%ADD11C,6.400000*%
%ADD12C,1.800000*%
%ADD13C,0.650000*%
%ADD14O,1.000000X2.100000*%
%ADD15O,1.000000X1.800000*%
%ADD16R,2.000000X2.000000*%
%ADD17C,2.000000*%
%ADD18R,1.700000X1.700000*%
%ADD19O,1.700000X1.700000*%
%ADD20HorizOval,1.800000X0.250000X-0.433013X-0.250000X0.433013X0*%
%ADD21RoundRect,0.250000X-1.667339X-0.212083X-1.017339X-1.337917X1.667339X0.212083X1.017339X1.337917X0*%
%ADD22HorizOval,1.800000X-0.779423X-0.450000X0.779423X0.450000X0*%
%ADD23R,1.350000X1.350000*%
%ADD24O,1.350000X1.350000*%
%ADD25R,1.500000X0.900000*%
%ADD26R,0.900000X1.500000*%
%ADD27C,0.600000*%
%ADD28R,3.800000X3.800000*%
G04 APERTURE END LIST*
D10*
%TO.C,H6*%
X113000000Y-59600000D03*
X113702944Y-57902944D03*
X113702944Y-61297056D03*
X115400000Y-57200000D03*
D11*
X115400000Y-59600000D03*
D10*
X115400000Y-62000000D03*
X117097056Y-57902944D03*
X117097056Y-61297056D03*
X117800000Y-59600000D03*
%TD*%
D12*
%TO.C,TP6*%
X105000000Y-106900000D03*
%TD*%
D10*
%TO.C,H2*%
X51700000Y-95000000D03*
X52402944Y-93302944D03*
X52402944Y-96697056D03*
X54100000Y-92600000D03*
D11*
X54100000Y-95000000D03*
D10*
X54100000Y-97400000D03*
X55797056Y-93302944D03*
X55797056Y-96697056D03*
X56500000Y-95000000D03*
%TD*%
D13*
%TO.C,J1*%
X92990000Y-127620000D03*
X98770000Y-127620000D03*
D14*
X91560000Y-127100000D03*
D15*
X91560000Y-131300000D03*
D14*
X100200000Y-127100000D03*
D15*
X100200000Y-131300000D03*
%TD*%
D16*
%TO.C,BZ1*%
X60300000Y-94800000D03*
D17*
X70300000Y-94800000D03*
%TD*%
D18*
%TO.C,J10*%
X107400000Y-64300000D03*
D19*
X109940000Y-64300000D03*
X107400000Y-66840000D03*
X109940000Y-66840000D03*
X107400000Y-69380000D03*
X109940000Y-69380000D03*
X107400000Y-71920000D03*
X109940000Y-71920000D03*
X107400000Y-74460000D03*
X109940000Y-74460000D03*
X107400000Y-77000000D03*
X109940000Y-77000000D03*
%TD*%
D12*
%TO.C,TP4*%
X86000000Y-84600000D03*
%TD*%
%TO.C,TP1*%
X124300000Y-117800000D03*
%TD*%
D10*
%TO.C,H5*%
X133500000Y-95000000D03*
X134202944Y-93302944D03*
X134202944Y-96697056D03*
X135900000Y-92600000D03*
D11*
X135900000Y-95000000D03*
D10*
X135900000Y-97400000D03*
X137597056Y-93302944D03*
X137597056Y-96697056D03*
X138300000Y-95000000D03*
%TD*%
D20*
%TO.C,J2*%
X68999296Y-118195449D03*
X74840897Y-112513398D03*
X73762436Y-115445449D03*
%TD*%
D12*
%TO.C,TP2*%
X120800000Y-115800000D03*
%TD*%
D17*
%TO.C,TP8*%
X98800000Y-114500000D03*
%TD*%
D12*
%TO.C,TP5*%
X108800000Y-126500000D03*
%TD*%
D10*
%TO.C,H3*%
X72200000Y-130400000D03*
X72902944Y-128702944D03*
X72902944Y-132097056D03*
X74600000Y-128000000D03*
D11*
X74600000Y-130400000D03*
D10*
X74600000Y-132800000D03*
X76297056Y-128702944D03*
X76297056Y-132097056D03*
X77000000Y-130400000D03*
%TD*%
D12*
%TO.C,TP3*%
X103100000Y-123900000D03*
%TD*%
D10*
%TO.C,H1*%
X72200000Y-59600000D03*
X72902944Y-57902944D03*
X72902944Y-61297056D03*
X74600000Y-57200000D03*
D11*
X74600000Y-59600000D03*
D10*
X74600000Y-62000000D03*
X76297056Y-57902944D03*
X76297056Y-61297056D03*
X77000000Y-59600000D03*
%TD*%
D18*
%TO.C,J4*%
X79625000Y-85975000D03*
D19*
X82165000Y-85975000D03*
X79625000Y-88515000D03*
X82165000Y-88515000D03*
X79625000Y-91055000D03*
X82165000Y-91055000D03*
X79625000Y-93595000D03*
X82165000Y-93595000D03*
X79625000Y-96135000D03*
X82165000Y-96135000D03*
X79625000Y-98675000D03*
X82165000Y-98675000D03*
X79625000Y-101215000D03*
X82165000Y-101215000D03*
%TD*%
D18*
%TO.C,J8*%
X83575000Y-81500000D03*
D19*
X86115000Y-81500000D03*
X88655000Y-81500000D03*
X91195000Y-81500000D03*
X93735000Y-81500000D03*
X96275000Y-81500000D03*
X98815000Y-81500000D03*
X101355000Y-81500000D03*
X103895000Y-81500000D03*
X106435000Y-81500000D03*
%TD*%
D18*
%TO.C,J6*%
X104660000Y-85920000D03*
D19*
X107200000Y-85920000D03*
X104660000Y-88460000D03*
X107200000Y-88460000D03*
X104660000Y-91000000D03*
X107200000Y-91000000D03*
X104660000Y-93540000D03*
X107200000Y-93540000D03*
X104660000Y-96080000D03*
X107200000Y-96080000D03*
X104660000Y-98620000D03*
X107200000Y-98620000D03*
X104660000Y-101160000D03*
X107200000Y-101160000D03*
%TD*%
D21*
%TO.C,J3*%
X120995000Y-72000443D03*
D22*
X122900000Y-75300000D03*
%TD*%
D21*
%TO.C,J7*%
X126006234Y-80680222D03*
D22*
X127911234Y-83979779D03*
%TD*%
D17*
%TO.C,TP7*%
X96700000Y-116600000D03*
%TD*%
D18*
%TO.C,J9*%
X80060000Y-64420000D03*
D19*
X82600000Y-64420000D03*
X80060000Y-66960000D03*
X82600000Y-66960000D03*
X80060000Y-69500000D03*
X82600000Y-69500000D03*
X80060000Y-72040000D03*
X82600000Y-72040000D03*
X80060000Y-74580000D03*
X82600000Y-74580000D03*
X80060000Y-77120000D03*
X82600000Y-77120000D03*
%TD*%
D23*
%TO.C,J5*%
X97300000Y-87600000D03*
D24*
X97300000Y-85600000D03*
X99300000Y-87600000D03*
X99300000Y-85600000D03*
X101300000Y-87600000D03*
X101300000Y-85600000D03*
%TD*%
D10*
%TO.C,H4*%
X113000000Y-130400000D03*
X113702944Y-128702944D03*
X113702944Y-132097056D03*
X115400000Y-128000000D03*
D11*
X115400000Y-130400000D03*
D10*
X115400000Y-132800000D03*
X117097056Y-128702944D03*
X117097056Y-132097056D03*
X117800000Y-130400000D03*
%TD*%
D25*
%TO.C,U3*%
X103750000Y-60845000D03*
X103750000Y-62115000D03*
X103750000Y-63385000D03*
X103750000Y-64655000D03*
X103750000Y-65925000D03*
X103750000Y-67195000D03*
X103750000Y-68465000D03*
X103750000Y-69735000D03*
X103750000Y-71005000D03*
X103750000Y-72275000D03*
X103750000Y-73545000D03*
X103750000Y-74815000D03*
X103750000Y-76085000D03*
X103750000Y-77355000D03*
D26*
X100715000Y-78450000D03*
X99445000Y-78450000D03*
X98175000Y-78450000D03*
X96905000Y-78450000D03*
X95635000Y-78450000D03*
X94365000Y-78450000D03*
X93095000Y-78450000D03*
X91825000Y-78450000D03*
X90555000Y-78450000D03*
X89285000Y-78450000D03*
D25*
X86250000Y-77355000D03*
X86250000Y-76085000D03*
X86250000Y-74815000D03*
X86250000Y-73545000D03*
X86250000Y-72275000D03*
X86250000Y-71005000D03*
X86250000Y-69735000D03*
X86250000Y-68465000D03*
X86250000Y-67195000D03*
X86250000Y-65925000D03*
X86250000Y-64655000D03*
X86250000Y-63385000D03*
X86250000Y-62115000D03*
X86250000Y-60845000D03*
D27*
X97900000Y-69110000D03*
X97900000Y-67710000D03*
X97200000Y-69810000D03*
X97200000Y-68410000D03*
X97200000Y-67010000D03*
X96500000Y-69110000D03*
D28*
X96500000Y-68410000D03*
D27*
X96500000Y-67710000D03*
X95800000Y-69810000D03*
X95800000Y-68410000D03*
X95800000Y-67010000D03*
X95100000Y-69110000D03*
X95100000Y-67710000D03*
%TD*%
M02*
