%TF.GenerationSoftware,KiCad,Pcbnew,7.0.9*%
%TF.CreationDate,2024-05-28T15:48:04+02:00*%
%TF.ProjectId,ESP_DB_v1.0,4553505f-4442-45f7-9631-2e302e6b6963,rev?*%
%TF.SameCoordinates,Original*%
%TF.FileFunction,Soldermask,Top*%
%TF.FilePolarity,Negative*%
%FSLAX46Y46*%
G04 Gerber Fmt 4.6, Leading zero omitted, Abs format (unit mm)*
G04 Created by KiCad (PCBNEW 7.0.9) date 2024-05-28 15:48:04*
%MOMM*%
%LPD*%
G01*
G04 APERTURE LIST*
G04 Aperture macros list*
%AMRoundRect*
0 Rectangle with rounded corners*
0 $1 Rounding radius*
0 $2 $3 $4 $5 $6 $7 $8 $9 X,Y pos of 4 corners*
0 Add a 4 corners polygon primitive as box body*
4,1,4,$2,$3,$4,$5,$6,$7,$8,$9,$2,$3,0*
0 Add four circle primitives for the rounded corners*
1,1,$1+$1,$2,$3*
1,1,$1+$1,$4,$5*
1,1,$1+$1,$6,$7*
1,1,$1+$1,$8,$9*
0 Add four rect primitives between the rounded corners*
20,1,$1+$1,$2,$3,$4,$5,0*
20,1,$1+$1,$4,$5,$6,$7,0*
20,1,$1+$1,$6,$7,$8,$9,0*
20,1,$1+$1,$8,$9,$2,$3,0*%
%AMHorizOval*
0 Thick line with rounded ends*
0 $1 width*
0 $2 $3 position (X,Y) of the first rounded end (center of the circle)*
0 $4 $5 position (X,Y) of the second rounded end (center of the circle)*
0 Add line between two ends*
20,1,$1,$2,$3,$4,$5,0*
0 Add two circle primitives to create the rounded ends*
1,1,$1,$2,$3*
1,1,$1,$4,$5*%
%AMRotRect*
0 Rectangle, with rotation*
0 The origin of the aperture is its center*
0 $1 length*
0 $2 width*
0 $3 Rotation angle, in degrees counterclockwise*
0 Add horizontal line*
21,1,$1,$2,0,0,$3*%
G04 Aperture macros list end*
%ADD10RoundRect,0.030000X-0.270000X-0.430000X0.270000X-0.430000X0.270000X0.430000X-0.270000X0.430000X0*%
%ADD11RoundRect,0.090000X-0.210000X-0.370000X0.210000X-0.370000X0.210000X0.370000X-0.210000X0.370000X0*%
%ADD12RoundRect,0.030000X0.507391X-0.018827X0.237391X0.448827X-0.507391X0.018827X-0.237391X-0.448827X0*%
%ADD13RoundRect,0.090000X0.425429X0.003135X0.215429X0.366865X-0.425429X-0.003135X-0.215429X-0.366865X0*%
%ADD14C,0.800000*%
%ADD15C,6.400000*%
%ADD16RoundRect,0.030000X0.448827X0.237391X-0.018827X0.507391X-0.448827X-0.237391X0.018827X-0.507391X0*%
%ADD17RoundRect,0.090000X0.366865X0.215429X0.003135X0.425429X-0.366865X-0.215429X-0.003135X-0.425429X0*%
%ADD18RoundRect,0.030000X-0.430000X0.270000X-0.430000X-0.270000X0.430000X-0.270000X0.430000X0.270000X0*%
%ADD19RoundRect,0.090000X-0.370000X0.210000X-0.370000X-0.210000X0.370000X-0.210000X0.370000X0.210000X0*%
%ADD20RoundRect,0.243750X-0.243750X-0.456250X0.243750X-0.456250X0.243750X0.456250X-0.243750X0.456250X0*%
%ADD21RoundRect,0.030000X0.237391X-0.448827X0.507391X0.018827X-0.237391X0.448827X-0.507391X-0.018827X0*%
%ADD22RoundRect,0.090000X0.215429X-0.366865X0.425429X-0.003135X-0.215429X0.366865X-0.425429X0.003135X0*%
%ADD23C,1.800000*%
%ADD24RoundRect,0.030000X0.430000X-0.270000X0.430000X0.270000X-0.430000X0.270000X-0.430000X-0.270000X0*%
%ADD25RoundRect,0.090000X0.370000X-0.210000X0.370000X0.210000X-0.370000X0.210000X-0.370000X-0.210000X0*%
%ADD26RoundRect,0.100000X-0.405353X0.502091X0.232147X-0.602091X0.405353X-0.502091X-0.232147X0.602091X0*%
%ADD27RotRect,1.500000X0.900000X240.000000*%
%ADD28RoundRect,0.030000X-0.018827X-0.507391X0.448827X-0.237391X0.018827X0.507391X-0.448827X0.237391X0*%
%ADD29RoundRect,0.090000X0.003135X-0.425429X0.366865X-0.215429X-0.003135X0.425429X-0.366865X0.215429X0*%
%ADD30RotRect,1.000000X0.750000X150.000000*%
%ADD31RoundRect,0.250000X0.925000X-0.412500X0.925000X0.412500X-0.925000X0.412500X-0.925000X-0.412500X0*%
%ADD32C,0.650000*%
%ADD33R,0.920000X1.220000*%
%ADD34R,0.600000X1.240000*%
%ADD35R,0.300000X1.240000*%
%ADD36O,1.000000X2.100000*%
%ADD37O,1.000000X1.800000*%
%ADD38R,2.000000X2.000000*%
%ADD39C,2.000000*%
%ADD40RoundRect,0.218750X-0.317568X-0.112544X0.061318X-0.331294X0.317568X0.112544X-0.061318X0.331294X0*%
%ADD41RoundRect,0.030000X-0.507391X0.018827X-0.237391X-0.448827X0.507391X-0.018827X0.237391X0.448827X0*%
%ADD42RoundRect,0.090000X-0.425429X-0.003135X-0.215429X-0.366865X0.425429X0.003135X0.215429X0.366865X0*%
%ADD43RoundRect,0.150000X-0.512500X-0.150000X0.512500X-0.150000X0.512500X0.150000X-0.512500X0.150000X0*%
%ADD44RoundRect,0.030000X0.270000X-0.570000X0.270000X0.570000X-0.270000X0.570000X-0.270000X-0.570000X0*%
%ADD45RoundRect,0.120000X0.180000X-0.480000X0.180000X0.480000X-0.180000X0.480000X-0.180000X-0.480000X0*%
%ADD46R,1.200000X3.300000*%
%ADD47R,1.700000X1.700000*%
%ADD48O,1.700000X1.700000*%
%ADD49R,1.500000X0.900000*%
%ADD50RotRect,1.500000X0.900000X60.000000*%
%ADD51RotRect,1.500000X0.900000X300.000000*%
%ADD52RoundRect,0.225000X0.375000X-0.225000X0.375000X0.225000X-0.375000X0.225000X-0.375000X-0.225000X0*%
%ADD53RotRect,1.500000X0.900000X330.000000*%
%ADD54RoundRect,0.030000X0.018827X0.507391X-0.448827X0.237391X-0.018827X-0.507391X0.448827X-0.237391X0*%
%ADD55RoundRect,0.090000X-0.003135X0.425429X-0.366865X0.215429X0.003135X-0.425429X0.366865X-0.215429X0*%
%ADD56R,1.200000X1.400000*%
%ADD57R,1.800000X1.000000*%
%ADD58RoundRect,0.200000X-0.700000X0.300000X-0.700000X-0.300000X0.700000X-0.300000X0.700000X0.300000X0*%
%ADD59RoundRect,0.030000X0.270000X0.430000X-0.270000X0.430000X-0.270000X-0.430000X0.270000X-0.430000X0*%
%ADD60RoundRect,0.090000X0.210000X0.370000X-0.210000X0.370000X-0.210000X-0.370000X0.210000X-0.370000X0*%
%ADD61RotRect,1.000000X0.750000X30.000000*%
%ADD62RoundRect,0.250000X-0.600000X0.400000X-0.600000X-0.400000X0.600000X-0.400000X0.600000X0.400000X0*%
%ADD63RoundRect,0.243750X0.243750X0.456250X-0.243750X0.456250X-0.243750X-0.456250X0.243750X-0.456250X0*%
%ADD64RotRect,1.500000X0.900000X210.000000*%
%ADD65HorizOval,1.800000X0.250000X-0.433013X-0.250000X0.433013X0*%
%ADD66RoundRect,0.030000X-0.448827X-0.237391X0.018827X-0.507391X0.448827X0.237391X-0.018827X0.507391X0*%
%ADD67RoundRect,0.090000X-0.366865X-0.215429X-0.003135X-0.425429X0.366865X0.215429X0.003135X0.425429X0*%
%ADD68R,1.000000X1.800000*%
%ADD69RoundRect,0.200000X-0.300000X-0.700000X0.300000X-0.700000X0.300000X0.700000X-0.300000X0.700000X0*%
%ADD70RotRect,1.500000X0.900000X150.000000*%
%ADD71RotRect,2.000000X1.780000X210.000000*%
%ADD72RotRect,1.500000X0.900000X120.000000*%
%ADD73R,1.000000X0.750000*%
%ADD74RoundRect,0.150000X0.587500X0.150000X-0.587500X0.150000X-0.587500X-0.150000X0.587500X-0.150000X0*%
%ADD75RoundRect,0.218750X0.256250X-0.218750X0.256250X0.218750X-0.256250X0.218750X-0.256250X-0.218750X0*%
%ADD76RoundRect,0.062500X-0.375000X-0.062500X0.375000X-0.062500X0.375000X0.062500X-0.375000X0.062500X0*%
%ADD77RoundRect,0.062500X-0.062500X-0.375000X0.062500X-0.375000X0.062500X0.375000X-0.062500X0.375000X0*%
%ADD78R,5.600000X5.600000*%
%ADD79RoundRect,0.250000X-1.667339X-0.212083X-1.017339X-1.337917X1.667339X0.212083X1.017339X1.337917X0*%
%ADD80HorizOval,1.800000X-0.779423X-0.450000X0.779423X0.450000X0*%
%ADD81R,1.350000X1.350000*%
%ADD82O,1.350000X1.350000*%
G04 APERTURE END LIST*
D10*
%TO.C,C24*%
X93400000Y-88300000D03*
D11*
X95000000Y-88300000D03*
%TD*%
D12*
%TO.C,R5*%
X80800000Y-119092820D03*
D13*
X80000000Y-117707180D03*
%TD*%
D14*
%TO.C,H6*%
X113000000Y-59600000D03*
X113702944Y-57902944D03*
X113702944Y-61297056D03*
X115400000Y-57200000D03*
D15*
X115400000Y-59600000D03*
D14*
X115400000Y-62000000D03*
X117097056Y-57902944D03*
X117097056Y-61297056D03*
X117800000Y-59600000D03*
%TD*%
D16*
%TO.C,R15*%
X64192820Y-85200000D03*
D17*
X62807180Y-84400000D03*
%TD*%
D18*
%TO.C,C31*%
X98800000Y-101000000D03*
D19*
X98800000Y-102600000D03*
%TD*%
D20*
%TO.C,D9*%
X93362500Y-120800000D03*
X95237500Y-120800000D03*
%TD*%
D21*
%TO.C,R47*%
X126400000Y-111992820D03*
D22*
X127200000Y-110607180D03*
%TD*%
D23*
%TO.C,TP6*%
X105000000Y-106900000D03*
%TD*%
D24*
%TO.C,C32*%
X98800000Y-106600000D03*
D25*
X98800000Y-105000000D03*
%TD*%
D26*
%TO.C,U4*%
X84801874Y-119158502D03*
X84238958Y-119483502D03*
X83676041Y-119808502D03*
X83113125Y-120133502D03*
X82550208Y-120458502D03*
X81987292Y-120783502D03*
X81424375Y-121108502D03*
X80861459Y-121433502D03*
X80298542Y-121758502D03*
X79735626Y-122083502D03*
X82598126Y-127041498D03*
X83161042Y-126716498D03*
X83723959Y-126391498D03*
X84286875Y-126066498D03*
X84849792Y-125741498D03*
X85412708Y-125416498D03*
X85975625Y-125091498D03*
X86538541Y-124766498D03*
X87101458Y-124441498D03*
X87664374Y-124116498D03*
%TD*%
D27*
%TO.C,D18*%
X135453942Y-100103238D03*
X132596058Y-98453238D03*
X130146058Y-102696762D03*
X133003942Y-104346762D03*
%TD*%
D14*
%TO.C,H2*%
X51700000Y-95000000D03*
X52402944Y-93302944D03*
X52402944Y-96697056D03*
X54100000Y-92600000D03*
D15*
X54100000Y-95000000D03*
D14*
X54100000Y-97400000D03*
X55797056Y-93302944D03*
X55797056Y-96697056D03*
X56500000Y-95000000D03*
%TD*%
D28*
%TO.C,C4*%
X82207180Y-118300000D03*
D29*
X83592820Y-117500000D03*
%TD*%
D30*
%TO.C,SW4*%
X68760576Y-79223798D03*
X63564424Y-76223798D03*
X70635576Y-75976202D03*
X65439424Y-72976202D03*
%TD*%
D31*
%TO.C,C13*%
X102700000Y-120837500D03*
X102700000Y-117762500D03*
%TD*%
D32*
%TO.C,J1*%
X92990000Y-127620000D03*
X98770000Y-127620000D03*
D33*
X92520000Y-126490000D03*
D34*
X93480000Y-126500000D03*
D35*
X94630000Y-126500000D03*
X95630000Y-126500000D03*
X96130000Y-126500000D03*
X97130000Y-126500000D03*
D34*
X98280000Y-126500000D03*
D33*
X99240000Y-126490000D03*
X99240000Y-126490000D03*
D34*
X98280000Y-126500000D03*
D35*
X97630000Y-126500000D03*
X96630000Y-126500000D03*
X95130000Y-126500000D03*
X94130000Y-126500000D03*
D34*
X93480000Y-126500000D03*
D33*
X92520000Y-126490000D03*
D36*
X91560000Y-127100000D03*
D37*
X91560000Y-131300000D03*
D36*
X100200000Y-127100000D03*
D37*
X100200000Y-131300000D03*
%TD*%
D18*
%TO.C,R3*%
X96800000Y-122600000D03*
D19*
X96800000Y-124200000D03*
%TD*%
D21*
%TO.C,R43*%
X124800000Y-114792820D03*
D22*
X125600000Y-113407180D03*
%TD*%
D38*
%TO.C,BZ1*%
X60300000Y-94800000D03*
D39*
X70300000Y-94800000D03*
%TD*%
D21*
%TO.C,R46*%
X125000000Y-111192820D03*
D22*
X125800000Y-109807180D03*
%TD*%
D10*
%TO.C,C30*%
X84800000Y-92300000D03*
D11*
X86400000Y-92300000D03*
%TD*%
D40*
%TO.C,D14*%
X59118005Y-84106250D03*
X60481995Y-84893750D03*
%TD*%
D21*
%TO.C,R56*%
X131000000Y-107192820D03*
D22*
X131800000Y-105807180D03*
%TD*%
D41*
%TO.C,C6*%
X88500000Y-122007180D03*
D42*
X89300000Y-123392820D03*
%TD*%
D24*
%TO.C,R33*%
X94400000Y-76900000D03*
D25*
X94400000Y-75300000D03*
%TD*%
D21*
%TO.C,R49*%
X125200000Y-107592820D03*
D22*
X126000000Y-106207180D03*
%TD*%
D43*
%TO.C,U1*%
X100562500Y-104950000D03*
X100562500Y-105900000D03*
X100562500Y-106850000D03*
X102837500Y-106850000D03*
X102837500Y-105900000D03*
X102837500Y-104950000D03*
%TD*%
D21*
%TO.C,R41*%
X122000000Y-113192820D03*
D22*
X122800000Y-111807180D03*
%TD*%
D16*
%TO.C,R19*%
X61292820Y-83500000D03*
D17*
X59907180Y-82700000D03*
%TD*%
D24*
%TO.C,C19*%
X95400000Y-65700000D03*
D25*
X95400000Y-64100000D03*
%TD*%
D10*
%TO.C,R14*%
X86600000Y-101300000D03*
D11*
X88200000Y-101300000D03*
%TD*%
D44*
%TO.C,Q1*%
X65000000Y-104950000D03*
D45*
X66900000Y-104950000D03*
X65950000Y-102950000D03*
%TD*%
D46*
%TO.C,L1*%
X108450000Y-122500000D03*
X111550000Y-122500000D03*
%TD*%
D10*
%TO.C,C26*%
X86200000Y-88300000D03*
D11*
X87800000Y-88300000D03*
%TD*%
D47*
%TO.C,J10*%
X107400000Y-64300000D03*
D48*
X109940000Y-64300000D03*
X107400000Y-66840000D03*
X109940000Y-66840000D03*
X107400000Y-69380000D03*
X109940000Y-69380000D03*
X107400000Y-71920000D03*
X109940000Y-71920000D03*
X107400000Y-74460000D03*
X109940000Y-74460000D03*
X107400000Y-77000000D03*
X109940000Y-77000000D03*
%TD*%
D24*
%TO.C,C25*%
X101000000Y-92600000D03*
D25*
X101000000Y-91000000D03*
%TD*%
D23*
%TO.C,TP4*%
X86000000Y-84600000D03*
%TD*%
D49*
%TO.C,D16*%
X110750000Y-132650000D03*
X110750000Y-129350000D03*
X105850000Y-129350000D03*
X105850000Y-132650000D03*
%TD*%
D10*
%TO.C,R16*%
X93400000Y-86700000D03*
D11*
X95000000Y-86700000D03*
%TD*%
D27*
%TO.C,D17*%
X122153942Y-123203238D03*
X119296058Y-121553238D03*
X116846058Y-125796762D03*
X119703942Y-127446762D03*
%TD*%
D23*
%TO.C,TP1*%
X124300000Y-117800000D03*
%TD*%
D50*
%TO.C,D5*%
X67946058Y-66796762D03*
X70803942Y-68446762D03*
X73253942Y-64203238D03*
X70396058Y-62553238D03*
%TD*%
D51*
%TO.C,D20*%
X119603942Y-62353238D03*
X116746058Y-64003238D03*
X119196058Y-68246762D03*
X122053942Y-66596762D03*
%TD*%
D52*
%TO.C,D11*%
X113600000Y-124050000D03*
X113600000Y-120750000D03*
%TD*%
D43*
%TO.C,U8*%
X105325000Y-110900000D03*
X105325000Y-111850000D03*
X105325000Y-112800000D03*
X107600000Y-112800000D03*
X107600000Y-110900000D03*
%TD*%
D53*
%TO.C,D4*%
X73403238Y-79846058D03*
X71753238Y-82703942D03*
X75996762Y-85153942D03*
X77646762Y-82296058D03*
%TD*%
D41*
%TO.C,R37*%
X124500000Y-86707180D03*
D42*
X125300000Y-88092820D03*
%TD*%
D18*
%TO.C,R12*%
X86600000Y-102900000D03*
D19*
X86600000Y-104500000D03*
%TD*%
D12*
%TO.C,R7*%
X88100000Y-128392820D03*
D13*
X87300000Y-127007180D03*
%TD*%
D18*
%TO.C,C21*%
X103400000Y-60200000D03*
D19*
X103400000Y-61800000D03*
%TD*%
D24*
%TO.C,R4*%
X92000000Y-124200000D03*
D25*
X92000000Y-122600000D03*
%TD*%
D14*
%TO.C,H5*%
X133500000Y-95000000D03*
X134202944Y-93302944D03*
X134202944Y-96697056D03*
X135900000Y-92600000D03*
D15*
X135900000Y-95000000D03*
D14*
X135900000Y-97400000D03*
X137597056Y-93302944D03*
X137597056Y-96697056D03*
X138300000Y-95000000D03*
%TD*%
D21*
%TO.C,R44*%
X126200000Y-115592820D03*
D22*
X127000000Y-114207180D03*
%TD*%
D54*
%TO.C,C8*%
X81992820Y-114700000D03*
D55*
X80607180Y-115500000D03*
%TD*%
D21*
%TO.C,R45*%
X123600000Y-110392820D03*
D22*
X124400000Y-109007180D03*
%TD*%
D24*
%TO.C,R32*%
X97600000Y-76900000D03*
D25*
X97600000Y-75300000D03*
%TD*%
D56*
%TO.C,Y2*%
X88150000Y-97900000D03*
X88150000Y-95700000D03*
X86450000Y-95700000D03*
X86450000Y-97900000D03*
%TD*%
D12*
%TO.C,R8*%
X89500000Y-127592820D03*
D13*
X88700000Y-126207180D03*
%TD*%
D18*
%TO.C,R21*%
X93600000Y-122600000D03*
D19*
X93600000Y-124200000D03*
%TD*%
D57*
%TO.C,F1*%
X106400000Y-122600000D03*
D58*
X106400000Y-125600000D03*
%TD*%
D59*
%TO.C,C27*%
X88200000Y-93900000D03*
D60*
X86600000Y-93900000D03*
%TD*%
D12*
%TO.C,C10*%
X78300000Y-124392820D03*
D13*
X77500000Y-123007180D03*
%TD*%
D49*
%TO.C,D22*%
X79350000Y-57350000D03*
X79350000Y-60650000D03*
X84250000Y-60650000D03*
X84250000Y-57350000D03*
%TD*%
D18*
%TO.C,R22*%
X89800000Y-99700000D03*
D19*
X89800000Y-101300000D03*
%TD*%
D61*
%TO.C,SW1*%
X121364424Y-96376202D03*
X126560576Y-93376202D03*
X123239424Y-99623798D03*
X128435576Y-96623798D03*
%TD*%
D62*
%TO.C,D23*%
X63000000Y-103000000D03*
X63000000Y-106500000D03*
%TD*%
D63*
%TO.C,D10*%
X100237500Y-120800000D03*
X98362500Y-120800000D03*
%TD*%
D21*
%TO.C,R42*%
X123400000Y-113992820D03*
D22*
X124200000Y-112607180D03*
%TD*%
D64*
%TO.C,D3*%
X77446762Y-104503942D03*
X75796762Y-101646058D03*
X71553238Y-104096058D03*
X73203238Y-106953942D03*
%TD*%
D65*
%TO.C,J2*%
X68999296Y-118195449D03*
X74840897Y-112513398D03*
X73762436Y-115445449D03*
%TD*%
D23*
%TO.C,TP2*%
X120800000Y-115800000D03*
%TD*%
D39*
%TO.C,TP8*%
X98800000Y-114500000D03*
%TD*%
D23*
%TO.C,TP5*%
X108800000Y-126500000D03*
%TD*%
D66*
%TO.C,R39*%
X121807180Y-119700000D03*
D67*
X123192820Y-120500000D03*
%TD*%
D24*
%TO.C,R2*%
X95200000Y-124200000D03*
D25*
X95200000Y-122600000D03*
%TD*%
D30*
%TO.C,SW3*%
X65960576Y-84123798D03*
X60764424Y-81123798D03*
X67835576Y-80876202D03*
X62639424Y-77876202D03*
%TD*%
D68*
%TO.C,F12*%
X110900000Y-125900000D03*
D69*
X113900000Y-125900000D03*
%TD*%
D59*
%TO.C,R27*%
X88800000Y-63400000D03*
D60*
X87200000Y-63400000D03*
%TD*%
D70*
%TO.C,D2*%
X113096762Y-108453942D03*
X114746762Y-105596058D03*
X110503238Y-103146058D03*
X108853238Y-106003942D03*
%TD*%
D64*
%TO.C,D1*%
X115608373Y-82121294D03*
X113958373Y-79263410D03*
X109714849Y-81713410D03*
X111364849Y-84571294D03*
%TD*%
D21*
%TO.C,R52*%
X129400000Y-109992820D03*
D22*
X130200000Y-108607180D03*
%TD*%
D18*
%TO.C,C15*%
X110000000Y-116000000D03*
D19*
X110000000Y-117600000D03*
%TD*%
D71*
%TO.C,U7*%
X123870000Y-89799704D03*
X122600000Y-87600000D03*
X114346778Y-92365000D03*
X115616778Y-94564704D03*
%TD*%
D10*
%TO.C,C18*%
X86200000Y-86700000D03*
D11*
X87800000Y-86700000D03*
%TD*%
D41*
%TO.C,C5*%
X79700000Y-125507180D03*
D42*
X80500000Y-126892820D03*
%TD*%
D18*
%TO.C,R18*%
X89800000Y-102900000D03*
D19*
X89800000Y-104500000D03*
%TD*%
D24*
%TO.C,R1*%
X98400000Y-124200000D03*
D25*
X98400000Y-122600000D03*
%TD*%
D18*
%TO.C,R20*%
X100000000Y-122600000D03*
D19*
X100000000Y-124200000D03*
%TD*%
D43*
%TO.C,U5*%
X105962500Y-115950000D03*
X105962500Y-116900000D03*
X105962500Y-117850000D03*
X108237500Y-117850000D03*
X108237500Y-116900000D03*
X108237500Y-115950000D03*
%TD*%
D41*
%TO.C,R35*%
X122000000Y-82307180D03*
D42*
X122800000Y-83692820D03*
%TD*%
D14*
%TO.C,H3*%
X72200000Y-130400000D03*
X72902944Y-128702944D03*
X72902944Y-132097056D03*
X74600000Y-128000000D03*
D15*
X74600000Y-130400000D03*
D14*
X74600000Y-132800000D03*
X76297056Y-128702944D03*
X76297056Y-132097056D03*
X77000000Y-130400000D03*
%TD*%
D54*
%TO.C,C9*%
X77992820Y-120700000D03*
D55*
X76607180Y-121500000D03*
%TD*%
D10*
%TO.C,R10*%
X105200000Y-114400000D03*
D11*
X106800000Y-114400000D03*
%TD*%
D24*
%TO.C,R29*%
X92800000Y-76900000D03*
D25*
X92800000Y-75300000D03*
%TD*%
D59*
%TO.C,R23*%
X86900000Y-77400000D03*
D60*
X85300000Y-77400000D03*
%TD*%
D54*
%TO.C,C7*%
X77192820Y-119300000D03*
D55*
X75807180Y-120100000D03*
%TD*%
D16*
%TO.C,R40*%
X120392820Y-118900000D03*
D17*
X119007180Y-118100000D03*
%TD*%
D21*
%TO.C,R54*%
X128200000Y-105592820D03*
D22*
X129000000Y-104207180D03*
%TD*%
D23*
%TO.C,TP3*%
X103100000Y-123900000D03*
%TD*%
D59*
%TO.C,C14*%
X110000000Y-119400000D03*
D60*
X108400000Y-119400000D03*
%TD*%
D54*
%TO.C,C3*%
X82792820Y-116100000D03*
D55*
X81407180Y-116900000D03*
%TD*%
D72*
%TO.C,D7*%
X57296058Y-104946762D03*
X60153942Y-103296762D03*
X57703942Y-99053238D03*
X54846058Y-100703238D03*
%TD*%
D59*
%TO.C,C22*%
X92500000Y-89900000D03*
D60*
X90900000Y-89900000D03*
%TD*%
D12*
%TO.C,R6*%
X79400000Y-119892820D03*
D13*
X78600000Y-118507180D03*
%TD*%
D14*
%TO.C,H1*%
X72200000Y-59600000D03*
X72902944Y-57902944D03*
X72902944Y-61297056D03*
X74600000Y-57200000D03*
D15*
X74600000Y-59600000D03*
D14*
X74600000Y-62000000D03*
X76297056Y-57902944D03*
X76297056Y-61297056D03*
X77000000Y-59600000D03*
%TD*%
D21*
%TO.C,R48*%
X127800000Y-112792820D03*
D22*
X128600000Y-111407180D03*
%TD*%
D18*
%TO.C,C20*%
X89600000Y-75300000D03*
D19*
X89600000Y-76900000D03*
%TD*%
D73*
%TO.C,SW2*%
X86500000Y-106525000D03*
X92500000Y-106525000D03*
X86500000Y-110275000D03*
X92500000Y-110275000D03*
%TD*%
D18*
%TO.C,C16*%
X111600000Y-116000000D03*
D19*
X111600000Y-117600000D03*
%TD*%
D12*
%TO.C,R36*%
X111200000Y-91092820D03*
D13*
X110400000Y-89707180D03*
%TD*%
D47*
%TO.C,J4*%
X79625000Y-85975000D03*
D48*
X82165000Y-85975000D03*
X79625000Y-88515000D03*
X82165000Y-88515000D03*
X79625000Y-91055000D03*
X82165000Y-91055000D03*
X79625000Y-93595000D03*
X82165000Y-93595000D03*
X79625000Y-96135000D03*
X82165000Y-96135000D03*
X79625000Y-98675000D03*
X82165000Y-98675000D03*
X79625000Y-101215000D03*
X82165000Y-101215000D03*
%TD*%
D49*
%TO.C,D21*%
X105950000Y-57350000D03*
X105950000Y-60650000D03*
X110850000Y-60650000D03*
X110850000Y-57350000D03*
%TD*%
D21*
%TO.C,R50*%
X126600000Y-108392820D03*
D22*
X127400000Y-107007180D03*
%TD*%
D74*
%TO.C,D13*%
X91537500Y-88350000D03*
X91537500Y-86450000D03*
X89662500Y-87400000D03*
%TD*%
D59*
%TO.C,R26*%
X88800000Y-67200000D03*
D60*
X87200000Y-67200000D03*
%TD*%
D47*
%TO.C,J8*%
X83575000Y-81500000D03*
D48*
X86115000Y-81500000D03*
X88655000Y-81500000D03*
X91195000Y-81500000D03*
X93735000Y-81500000D03*
X96275000Y-81500000D03*
X98815000Y-81500000D03*
X101355000Y-81500000D03*
X103895000Y-81500000D03*
X106435000Y-81500000D03*
%TD*%
D71*
%TO.C,U2*%
X121061611Y-84917352D03*
X119791611Y-82717648D03*
X111538389Y-87482648D03*
X112808389Y-89682352D03*
%TD*%
D28*
%TO.C,C1*%
X77807180Y-117100000D03*
D29*
X79192820Y-116300000D03*
%TD*%
D24*
%TO.C,R13*%
X103400000Y-65000000D03*
D25*
X103400000Y-63400000D03*
%TD*%
D10*
%TO.C,C12*%
X105200000Y-121000000D03*
D11*
X106800000Y-121000000D03*
%TD*%
D75*
%TO.C,D12*%
X88200000Y-104487500D03*
X88200000Y-102912500D03*
%TD*%
D10*
%TO.C,C11*%
X105200000Y-119400000D03*
D11*
X106800000Y-119400000D03*
%TD*%
D12*
%TO.C,R9*%
X86700000Y-129192820D03*
D13*
X85900000Y-127807180D03*
%TD*%
D54*
%TO.C,C2*%
X76392820Y-117900000D03*
D55*
X75007180Y-118700000D03*
%TD*%
D18*
%TO.C,R25*%
X68550000Y-104950000D03*
D19*
X68550000Y-106550000D03*
%TD*%
D47*
%TO.C,J6*%
X104660000Y-85920000D03*
D48*
X107200000Y-85920000D03*
X104660000Y-88460000D03*
X107200000Y-88460000D03*
X104660000Y-91000000D03*
X107200000Y-91000000D03*
X104660000Y-93540000D03*
X107200000Y-93540000D03*
X104660000Y-96080000D03*
X107200000Y-96080000D03*
X104660000Y-98620000D03*
X107200000Y-98620000D03*
X104660000Y-101160000D03*
X107200000Y-101160000D03*
%TD*%
D76*
%TO.C,U6*%
X92062500Y-92250000D03*
X92062500Y-92750000D03*
X92062500Y-93250000D03*
X92062500Y-93750000D03*
X92062500Y-94250000D03*
X92062500Y-94750000D03*
X92062500Y-95250000D03*
X92062500Y-95750000D03*
X92062500Y-96250000D03*
X92062500Y-96750000D03*
X92062500Y-97250000D03*
X92062500Y-97750000D03*
D77*
X92750000Y-98437500D03*
X93250000Y-98437500D03*
X93750000Y-98437500D03*
X94250000Y-98437500D03*
X94750000Y-98437500D03*
X95250000Y-98437500D03*
X95750000Y-98437500D03*
X96250000Y-98437500D03*
X96750000Y-98437500D03*
X97250000Y-98437500D03*
X97750000Y-98437500D03*
X98250000Y-98437500D03*
D76*
X98937500Y-97750000D03*
X98937500Y-97250000D03*
X98937500Y-96750000D03*
X98937500Y-96250000D03*
X98937500Y-95750000D03*
X98937500Y-95250000D03*
X98937500Y-94750000D03*
X98937500Y-94250000D03*
X98937500Y-93750000D03*
X98937500Y-93250000D03*
X98937500Y-92750000D03*
X98937500Y-92250000D03*
D77*
X98250000Y-91562500D03*
X97750000Y-91562500D03*
X97250000Y-91562500D03*
X96750000Y-91562500D03*
X96250000Y-91562500D03*
X95750000Y-91562500D03*
X95250000Y-91562500D03*
X94750000Y-91562500D03*
X94250000Y-91562500D03*
X93750000Y-91562500D03*
X93250000Y-91562500D03*
X92750000Y-91562500D03*
D78*
X95500000Y-95000000D03*
%TD*%
D49*
%TO.C,D15*%
X84150000Y-132650000D03*
X84150000Y-129350000D03*
X79250000Y-129350000D03*
X79250000Y-132650000D03*
%TD*%
D79*
%TO.C,J3*%
X120995000Y-72000443D03*
D80*
X122900000Y-75300000D03*
%TD*%
D79*
%TO.C,J7*%
X126006234Y-80680222D03*
D80*
X127911234Y-83979779D03*
%TD*%
D39*
%TO.C,TP7*%
X96700000Y-116600000D03*
%TD*%
D21*
%TO.C,R53*%
X126800000Y-104792820D03*
D22*
X127600000Y-103407180D03*
%TD*%
D10*
%TO.C,C23*%
X100400000Y-101000000D03*
D11*
X102000000Y-101000000D03*
%TD*%
D59*
%TO.C,C17*%
X103400000Y-66600000D03*
D60*
X101800000Y-66600000D03*
%TD*%
D24*
%TO.C,R34*%
X96000000Y-76900000D03*
D25*
X96000000Y-75300000D03*
%TD*%
D24*
%TO.C,R30*%
X91200000Y-76900000D03*
D25*
X91200000Y-75300000D03*
%TD*%
D41*
%TO.C,R38*%
X112300000Y-93007180D03*
D42*
X113100000Y-94392820D03*
%TD*%
D18*
%TO.C,R17*%
X97200000Y-101000000D03*
D19*
X97200000Y-102600000D03*
%TD*%
D21*
%TO.C,R51*%
X128000000Y-109192820D03*
D22*
X128800000Y-107807180D03*
%TD*%
D47*
%TO.C,J9*%
X80060000Y-64420000D03*
D48*
X82600000Y-64420000D03*
X80060000Y-66960000D03*
X82600000Y-66960000D03*
X80060000Y-69500000D03*
X82600000Y-69500000D03*
X80060000Y-72040000D03*
X82600000Y-72040000D03*
X80060000Y-74580000D03*
X82600000Y-74580000D03*
X80060000Y-77120000D03*
X82600000Y-77120000D03*
%TD*%
D72*
%TO.C,D8*%
X70296058Y-127546762D03*
X73153942Y-125896762D03*
X70703942Y-121653238D03*
X67846058Y-123303238D03*
%TD*%
D51*
%TO.C,D19*%
X133103942Y-85753238D03*
X130246058Y-87403238D03*
X132696058Y-91646762D03*
X135553942Y-89996762D03*
%TD*%
D59*
%TO.C,C29*%
X86400000Y-89900000D03*
D60*
X84800000Y-89900000D03*
%TD*%
D81*
%TO.C,J5*%
X97300000Y-87600000D03*
D82*
X97300000Y-85600000D03*
X99300000Y-87600000D03*
X99300000Y-85600000D03*
X101300000Y-87600000D03*
X101300000Y-85600000D03*
%TD*%
D59*
%TO.C,R24*%
X66700000Y-106550000D03*
D60*
X65100000Y-106550000D03*
%TD*%
D10*
%TO.C,R11*%
X108400000Y-114400000D03*
D11*
X110000000Y-114400000D03*
%TD*%
D57*
%TO.C,Y1*%
X88400000Y-89850000D03*
X88400000Y-92350000D03*
%TD*%
D21*
%TO.C,R55*%
X129600000Y-106392820D03*
D22*
X130400000Y-105007180D03*
%TD*%
D14*
%TO.C,H4*%
X113000000Y-130400000D03*
X113702944Y-128702944D03*
X113702944Y-132097056D03*
X115400000Y-128000000D03*
D15*
X115400000Y-130400000D03*
D14*
X115400000Y-132800000D03*
X117097056Y-128702944D03*
X117097056Y-132097056D03*
X117800000Y-130400000D03*
%TD*%
D50*
%TO.C,D6*%
X54546058Y-89896762D03*
X57403942Y-91546762D03*
X59853942Y-87303238D03*
X56996058Y-85653238D03*
%TD*%
D10*
%TO.C,C28*%
X86600000Y-99700000D03*
D11*
X88200000Y-99700000D03*
%TD*%
D10*
%TO.C,R28*%
X65100000Y-108200000D03*
D11*
X66700000Y-108200000D03*
%TD*%
D24*
%TO.C,R31*%
X99200000Y-76900000D03*
D25*
X99200000Y-75300000D03*
%TD*%
M02*
